<?xml version="1.0" encoding="UTF-8"?>
<svg width="20px" height="20px" viewBox="0 0 20 20" version="1.1" xmlns="http://www.w3.org/2000/svg" xmlns:xlink="http://www.w3.org/1999/xlink">
    <title>Icons/Communication/Social/github</title>
    <g id="Icons/Communication/Social/github" stroke="none" stroke-width="1" fill="none" fill-rule="evenodd">
        <path d="M10.0609773,0 C5.12576644,0.00651399525 0.922014351,3.58758939 0.131107157,8.45901777 C-0.659800037,13.3304462 2.19506933,18.0575334 6.87472131,19.6250811 C7.03564823,19.69768 7.22292006,19.6801252 7.36755121,19.5788834 C7.51218235,19.4776416 7.59277655,19.3076902 7.5796452,19.1316344 L7.5796452,17.4186693 C4.75994964,18.0319531 4.17486281,16.1075109 4.17486281,16.1075109 C3.98567572,15.4788343 3.57162865,14.9418278 3.01173839,14.5989738 C2.09533733,13.9715915 3.08223078,13.98569 3.08223078,13.98569 C3.72392309,14.0678846 4.29269417,14.4392739 4.6260141,14.9937312 C4.89523495,15.5024695 5.36018915,15.8794935 5.91357476,16.0377937 C6.46696036,16.196094 7.06096246,16.1219925 7.55849749,15.8325906 C7.60353477,15.3227322 7.82840758,14.8455021 8.19292899,14.486186 C6.03586188,14.2747088 3.63912065,13.4076524 3.63912065,9.55171872 C3.61418567,8.55458245 3.97242545,7.58582137 4.64011258,6.84481098 C4.3312436,5.9742362 4.36654548,5.01856391 4.73880192,4.17314943 C4.73880192,4.17314943 5.61995679,3.90527836 7.50915281,5.18823984 C9.15665383,4.73791975 10.8948084,4.73791975 12.5423094,5.18823984 C14.4667516,3.89117988 15.3126603,4.18019867 15.3126603,4.18019867 C15.6856261,5.02545001 15.7209381,5.98139579 15.4113496,6.85186022 C16.0811527,7.58924584 16.4420319,8.55579648 16.4193908,9.55171872 C16.4193908,13.4217509 14.064945,14.2747088 11.8162378,14.486186 C12.3090148,14.9755611 12.5660548,15.6541469 12.5211617,16.347185 L12.5211617,19.1034374 C12.510678,19.278274 12.592353,19.4458705 12.736516,19.5453429 C12.8806789,19.6448153 13.0663525,19.6616893 13.2260856,19.5898349 C17.8481341,17.9870581 20.6504534,13.2951774 19.8701679,8.46574877 C19.0898824,3.63632019 14.952594,0.0656643037 10.0609773,0 Z" id="Shape" fill="#000000" fill-rule="nonzero"></path>
    </g>
</svg>